<svg xmlns="http://www.w3.org/2000/svg" viewBox="0 0 64 64"><defs><radialGradient id="g" cx="0.5" cy="0.35" r="0.7"><stop offset="0" stop-color="#ffe6a8"/><stop offset="0.55" stop-color="#f0c468"/><stop offset="1" stop-color="#8a4d18"/></radialGradient></defs><circle cx="32" cy="32" r="31" fill="#1a1208"/><circle cx="32" cy="32" r="27" fill="url(#g)"/><path d="M36 12c-3 4-7 7-7 14 0 5 4 7 4 13 0 4-3 7-7 7-5 0-8-4-8-8 0-3 2-6 5-6 2 0 4 1 4 4 0 2-1 3-3 3 1 2 4 2 5 0 2-3 0-7-4-7-5 0-9 4-9 9 0 6 5 11 11 11 7 0 12-5 12-12 0-7-4-9-4-14 0-5 3-8 6-11l-5-3z" fill="#1a1208"/></svg>