<svg xmlns="http://www.w3.org/2000/svg" viewBox="0 0 512 512"><defs><radialGradient id="g" cx="0.5" cy="0.35" r="0.7"><stop offset="0" stop-color="#ffe6a8"/><stop offset="0.55" stop-color="#f0c468"/><stop offset="1" stop-color="#8a4d18"/></radialGradient></defs><rect width="512" height="512" rx="120" fill="#1a1208"/><circle cx="256" cy="256" r="210" fill="url(#g)"/><path d="M288 96c-24 32-56 56-56 112 0 40 32 56 32 104 0 32-24 56-56 56-40 0-64-32-64-64 0-24 16-48 40-48 16 0 32 8 32 32 0 16-8 24-24 24 8 16 32 16 40 0 16-24 0-56-32-56-40 0-72 32-72 72 0 48 40 88 88 88 56 0 96-40 96-96 0-56-32-72-32-112 0-40 24-64 48-88l-40-24z" fill="#1a1208"/></svg>